# xmcd
#
# Track frame offsets: 
#        151
#        25589
#        45782
#        67427
#        79728
#        96042
#        112545
#        130409
#        153722
#        175097
#        195471
#        220055
#        237690
#
# Disc length: 3383 seconds
#
# Revision: 0
# Processed by: cddbd v1.5.2PL0 Copyright (c) Steve Scherf et al.
# Submitted via: ExactAudioCopyFreeDBPlugin 1.0
#
DISCID=a70d350d
DTITLE=Wainer Nadalini - Ya Basta
DYEAR=1998
DGENRE=Country
TTITLE0=Emiliano Zapata (I Parte)
TTITLE1=Pancho Villa
TTITLE2=Sonora
TTITLE3=Valentina
TTITLE4=La Cucaracha
TTITLE5=Emiliano Zapata II Parte)
TTITLE6=Marcos (I Parte)
TTITLE7=Como Es Posible?
TTITLE8=San José
TTITLE9=La Mañamitas
TTITLE10="Che" Guevara, Geronimo Y Marcos
TTITLE11=Chiapas
TTITLE12=Marcus (II Parte)
EXTD=
EXTT0=
EXTT1=
EXTT2=
EXTT3=
EXTT4=
EXTT5=
EXTT6=
EXTT7=
EXTT8=
EXTT9=
EXTT10=
EXTT11=
EXTT12=
PLAYORDER=
